Coordinates
version=1
nRows=20
nColumns=34
inDegrees=yes

Units are S.I. units (second, meters, Newtons, ...)
If the header above contains a line with 'inDegrees', this indicates whether rotational values are in degrees (yes) or radians (no).

endheader
time	pelvis_tilt	pelvis_list	pelvis_rotation	pelvis_tx	pelvis_ty	pelvis_tz	hip_flexion_r	hip_adduction_r	hip_rotation_r	knee_angle_r	ankle_angle_r	subtalar_angle_r	mtp_angle_r	hip_flexion_l	hip_adduction_l	hip_rotation_l	knee_angle_l	ankle_angle_l	subtalar_angle_l	mtp_angle_l	lumbar_extension	lumbar_bending	lumbar_rotation	arm_flex_r	arm_add_r	arm_rot_r	elbow_flex_r	pro_sup_r	arm_flex_l	arm_add_l	arm_rot_l	elbow_flex_l	pro_sup_l
      8.13333330	     14.56866954	    -12.09740452	     -2.16247252	     -0.86950826	      0.46031102	     -0.24415212	     77.57311821	      4.36794741	    -19.13877846	     45.29675610	      8.84147022	      6.35621116	      0.00000000	     79.15732555	     -4.33843152	      4.45492382	     38.58917872	     -9.21498824	    -14.66564393	      0.00000000	    -40.91799973	      1.84721455	    -10.49499221	     92.21507370	    -10.67387843	     21.57925387	     73.55309882	     90.20105227	     52.46827320	    -29.67380113	     13.17520930	     57.69777718	     75.77481409
      8.15000000	     15.26311045	    -11.50387498	     -2.30291812	     -0.87314502	      0.46137421	     -0.25060586	     75.48384420	      4.04641502	    -17.99356918	     39.99717990	     -0.20396480	      0.40356982	      0.00000000	     77.69076501	     -3.76829166	      4.28970182	     37.78521132	     -9.87584380	    -16.45206517	      0.00000000	    -42.99397920	      1.12890186	    -12.05228007	     97.15766954	    -10.78528733	     22.71094745	     73.57893546	     90.92708143	     58.19917683	    -29.48538856	     15.24964459	     55.29899842	     76.09854642
      8.16666670	     14.90541285	    -10.75021449	     -2.01144278	     -0.86209068	      0.47002209	     -0.24969286	     74.39260846	      3.01783897	    -18.07247944	     37.15610612	     -6.98185667	     -2.71764293	      0.00000000	     77.32173376	     -2.80208264	      3.74173231	     37.65852495	    -10.79158407	    -18.31015082	      0.00000000	    -43.99916973	      0.31165683	    -14.68220184	    100.17614791	    -10.59263186	     23.02032731	     75.40909497	     91.35165229	     62.35514561	    -29.86911131	     15.59507345	     53.86979982	     76.11323036
      8.18333330	     13.98933681	    -10.24130273	     -2.18934770	     -0.85623173	      0.47180946	     -0.25070643	     74.32635676	      2.35839238	    -17.81290662	     35.56870294	    -11.50857960	     -6.40118749	      0.00000000	     77.87375315	     -2.45161906	      3.49083121	     37.88922585	    -10.30398725	    -19.02671848	      0.00000000	    -44.19449874	     -0.64297666	    -16.87194886	    102.67446031	    -10.78150940	     23.58311046	     77.79519472	     91.88085109	     65.81203311	    -30.14698884	     16.24801670	     52.99778740	     76.10100248
      8.20000000	     12.94716355	     -9.89698876	     -2.17115345	     -0.85591897	      0.46823537	     -0.25023853	     75.10406350	      1.57640238	    -17.79922379	     35.16071034	    -14.92253160	     -8.67335175	      0.00000000	     79.58361307	     -1.98352966	      4.10636371	     39.55044204	    -10.45977739	    -20.44698702	      0.00000000	    -44.17935532	     -1.35884615	    -18.79608490	    105.07569366	    -11.32473948	     24.24732323	     80.34455286	     92.41716925	     68.96146605	    -30.00983563	     16.97942579	     52.60636055	     76.01347036
      8.21666670	     11.22964252	     -9.67229021	     -2.16843685	     -0.84879031	      0.47038324	     -0.25300301	     76.45418204	      0.85814173	    -17.86671375	     35.06826098	    -16.91742196	     -9.69447507	      0.00000000	     81.94958543	     -1.31982637	      4.83919411	     42.11800775	     -9.49961922	    -19.74836158	      0.00000000	    -43.51264280	     -1.61075119	    -20.96367457	    107.21529473	    -11.35597238	     24.84503028	     83.40246841	     92.73299892	     71.30800974	    -30.30196449	     16.63192968	     52.17079198	     75.85543447
      8.23333330	      9.81189909	     -9.65730419	     -3.00295160	     -0.84593498	      0.47073911	     -0.25190010	     77.97960477	      1.27691144	    -17.49671093	     35.81893376	    -18.30062178	    -10.29171371	      0.00000000	     82.85261317	     -2.05679683	      4.96699705	     41.86658791	     -8.51406436	    -19.42196534	      0.00000000	    -43.08961652	     -2.38406229	    -22.17085284	    109.55210995	    -11.29357051	     25.73885032	     85.40145943	     93.09072866	     74.00281915	    -30.20272184	     15.99991588	     51.57753899	     75.58187332
      8.25000000	      8.16052905	    -10.88559980	     -5.22354760	     -0.84576576	      0.47256675	     -0.25067741	     79.70314981	      3.61702445	    -18.86837281	     38.38656862	    -16.51358905	    -10.14948777	      0.00000000	     83.03521210	     -4.41234123	      5.56418267	     39.36700457	     -7.53821988	    -20.44139112	      0.00000000	    -42.62726372	     -2.59602498	    -21.45624984	    112.52255915	    -10.78704958	     26.95815097	     86.81000005	     93.55879422	     76.72045295	    -29.95401994	     15.05115825	     50.46525537	     74.94232716
      8.26666670	      4.86739959	    -12.81338282	     -8.03393532	     -0.84770741	      0.46661875	     -0.24714018	     83.50868893	      6.51751448	    -20.96525402	     41.86324824	    -10.30408193	     -4.96675458	      0.00000000	     87.35251782	     -7.20415354	      8.50963510	     40.50013317	     -8.35795983	    -21.55632232	      0.00000000	    -40.73582604	     -1.85366570	    -20.30574902	    115.45672915	     -9.06582708	     28.28264478	     87.14130721	     93.86417594	     79.03165844	    -30.63284919	     13.99955578	     49.52710942	     74.27625326
      8.28333330	      3.83664119	    -14.46667928	     -8.81238500	     -0.84441481	      0.46690896	     -0.24795506	     84.69219460	      7.55014830	    -21.11239538	     43.00362579	     -5.77851470	     -0.59617075	      0.00000000	     89.03388688	     -8.23038212	     10.21731651	     41.29795741	     -8.20768688	    -22.25896306	      0.00000000	    -41.05174642	     -0.52428585	    -20.24596962	    119.05160285	     -7.21553020	     29.69830637	     86.17764623	     94.07600948	     81.70801741	    -31.19735574	     13.13024733	     48.27661363	     73.45113180
      8.30000000	      3.04882607	    -15.20727084	     -8.99515702	     -0.84419674	      0.46706534	     -0.24575865	     84.93349609	      8.32053763	    -20.63736023	     40.27909805	     -5.43020325	      0.03185532	      0.00000000	     90.04664490	     -8.30350495	     10.99042339	     41.66438910	     -9.10852650	    -24.72413006	      0.00000000	    -41.58247217	     -0.12215158	    -20.60257580	    121.90232485	     -5.48841532	     30.38104666	     85.25801797	     94.16383814	     84.79625225	    -31.33300121	     12.74097734	     46.37847944	     72.69566767
      8.31666670	      2.78141437	    -15.28144910	     -8.32241685	     -0.83630613	      0.46760402	     -0.24468172	     83.81111298	      8.14344846	    -18.98883350	     35.55681337	    -10.58277581	     -2.97268637	      0.00000000	     90.41734271	     -7.82509422	     10.07814593	     41.47233217	     -9.40489730	    -24.73424425	      0.00000000	    -42.38379123	     -0.51121066	    -21.03882263	    123.92082692	     -4.91174744	     31.07000607	     84.70485740	     94.13986624	     87.94426167	    -30.28406123	     14.25050439	     43.55604953	     70.94031323
      8.33333330	      2.84324153	    -14.88331640	     -6.94358110	     -0.83307800	      0.46224736	     -0.24805138	     82.95591607	      6.82881482	    -18.11850783	     32.38512549	    -14.81769613	     -5.16817400	      0.00000000	     90.39264473	     -6.42626537	      8.46001157	     40.92916052	    -10.15865313	    -24.29803344	      0.00000000	    -43.60960844	     -0.80488194	    -22.40631812	    125.65269353	     -3.67174014	     31.02778255	     83.48121747	     93.99602722	     90.86593820	    -29.60347979	     14.62301288	     41.37961216	     70.12198442
      8.35000000	      2.31660670	    -14.50315783	     -5.86142802	     -0.83919637	      0.45487120	     -0.25235520	     83.23547530	      5.12907598	    -18.34616776	     31.20441059	    -17.20762204	     -6.02253170	      0.00000000	     91.75161609	     -4.90130756	      8.35317573	     42.27581042	    -11.57639079	    -25.13760314	      0.00000000	    -44.92451569	     -0.69406665	    -22.54290359	    129.15986885	     -2.65290781	     31.96181655	     80.97978146	     93.44011342	     95.05694334	    -28.13990618	     17.17993179	     37.50031998	     68.55930569
      8.36666670	      1.83243383	    -14.19267788	     -4.97519661	     -0.83424597	      0.45948316	     -0.25728962	     84.06523050	      3.62338599	    -18.76297346	     32.91357526	    -18.05097392	     -8.57560230	      0.00000000	     92.12668034	     -3.52144756	      8.00340119	     42.39542153	    -11.96934756	    -25.07243042	      0.00000000	    -46.39286907	     -0.38802121	    -22.45388779	    131.78326825	     -0.51546343	     32.06887936	     77.75953935	     92.77360266	     97.47785025	    -27.03658873	     17.92524999	     35.04166800	     67.28903144
      8.38333330	      0.19045061	    -13.70296525	     -5.17285308	     -0.82603878	      0.45970356	     -0.25428599	     86.08351062	      3.13852460	    -18.91347901	     34.98235442	    -17.48397954	    -10.79252638	      0.00000000	     93.20653296	     -3.39158980	      7.29514194	     41.50843500	    -12.19793966	    -24.11890951	      0.00000000	    -46.32789701	     -0.94510200	    -21.16484952	    132.68719942	      1.26997139	     31.60806225	     76.36861736	     92.32759560	     97.16768706	    -25.92756313	     17.95748785	     34.29454433	     66.70353497
      8.40000000	     -0.55928245	    -13.19956112	     -5.17487357	     -0.82275273	      0.45717991	     -0.25665677	     87.14002860	      2.81581411	    -19.09686948	     36.31905317	    -16.85367877	    -11.35906745	      0.00000000	     93.03501928	     -3.27394491	      6.31723352	     40.00522108	    -12.83994366	    -23.94569612	      0.00000000	    -46.85502172	     -1.33598343	    -19.91355850	    132.22374344	      3.70984208	     30.72376175	     74.35288002	     91.59230376	     96.13337966	    -24.92755501	     17.15674640	     33.23594778	     65.77455006
      8.41666670	     -1.63383536	    -12.81877407	     -4.75685984	     -0.81731172	      0.45109101	     -0.25190696	     89.26343591	      1.93653016	    -19.39313295	     38.34591628	    -15.67914475	    -11.83183315	      0.00000000	     94.52126717	     -2.98984251	      6.30694768	     41.16133926	    -13.09903411	    -23.52805553	      0.00000000	    -46.57426338	     -1.32049976	    -19.17521513	    130.46500578	      6.84416397	     29.16828096	     71.97301595	     89.53847013	     92.73032483	    -24.51408329	     14.08815319	     34.14031985	     63.25851456
      8.43333330	     -2.79426274	    -12.34977223	     -4.83621440	     -0.80771806	      0.44660915	     -0.25771019	     91.43349836	      0.99881656	    -19.39385961	     41.12584598	    -14.65480227	    -12.39663233	      0.00000000	     96.31333037	     -2.42520941	      6.63635893	     42.74257244	    -15.05735854	    -25.71488372	      0.00000000	    -45.89663937	     -1.74051734	    -17.76565633	    127.47944155	      9.78405796	     27.12922452	     70.81621270	     87.59083928	     87.11719364	    -23.61256700	     10.63843586	     35.34951574	     61.49702414
      8.45000000	     -3.00828000	    -12.08814976	     -4.54668871	     -0.80133641	      0.44639747	     -0.26056993	     92.68496844	     -0.04520051	    -19.40548252	     43.35647471	    -13.60792230	    -12.73594645	      0.00000000	     97.12668340	     -1.95727845	      6.30863938	     43.61574942	    -15.80159441	    -26.95904764	      0.00000000	    -45.79593254	     -1.99309792	    -15.71358489	    123.23806738	     11.80919375	     26.38145654	     69.43501228	     85.22115145	     79.93743182	    -21.76344140	      4.70174019	     37.86733015	     59.85203785
